<svg width="413" height="275" viewBox="0 0 413 275" fill="none" xmlns="http://www.w3.org/2000/svg">
<path d="M370.677 53.7283H286.031V218.893H370.677V53.7283Z" fill="#E6E6E6"/>
<path d="M293.938 210.436H362.771V62.1856H293.938V210.436Z" fill="white"/>
<path d="M340.489 93.9821H320.386V95.979H340.489V93.9821Z" fill="#E6E6E6"/>
<path d="M355.423 100.89H320.386V102.887H355.423V100.89Z" fill="#E6E6E6"/>
<path d="M355.389 107.798H320.386V109.794H355.389V107.798Z" fill="#E6E6E6"/>
<path d="M316.22 94.0117H301.286V109.987H316.22V94.0117Z" fill="#E6E6E6"/>
<path d="M340.489 128.309H320.386V130.305H340.489V128.309Z" fill="#E6E6E6"/>
<path d="M355.423 135.216H320.386V137.213H355.423V135.216Z" fill="#E6E6E6"/>
<path d="M355.389 142.124H320.386V144.121H355.389V142.124Z" fill="#E6E6E6"/>
<path d="M316.22 128.338H301.286V144.313H316.22V128.338Z" fill="#E6E6E6"/>
<path d="M340.489 162.635H320.386V164.632H340.489V162.635Z" fill="#E6E6E6"/>
<path d="M355.423 169.543H320.386V171.54H355.423V169.543Z" fill="#E6E6E6"/>
<path d="M355.389 176.451H320.386V178.447H355.389V176.451Z" fill="#E6E6E6"/>
<path d="M316.22 162.665H301.286V178.639H316.22V162.665Z" fill="#E6E6E6"/>
<path d="M134.413 53.7283H49.7676V218.893H134.413V53.7283Z" fill="#E6E6E6"/>
<path d="M57.6741 210.436H126.507V62.1856H57.6741V210.436Z" fill="white"/>
<path d="M104.225 93.9821H84.1221V95.979H104.225V93.9821Z" fill="#E6E6E6"/>
<path d="M119.159 100.89H84.1221V102.887H119.159V100.89Z" fill="#E6E6E6"/>
<path d="M119.125 107.798H84.1221V109.794H119.125V107.798Z" fill="#E6E6E6"/>
<path d="M79.956 94.0117H65.0215V109.987H79.956V94.0117Z" fill="#E6E6E6"/>
<path d="M104.225 128.309H84.1221V130.305H104.225V128.309Z" fill="#E6E6E6"/>
<path d="M119.159 135.216H84.1221V137.213H119.159V135.216Z" fill="#E6E6E6"/>
<path d="M119.125 142.124H84.1221V144.121H119.125V142.124Z" fill="#E6E6E6"/>
<path d="M79.956 128.338H65.0215V144.313H79.956V128.338Z" fill="#E6E6E6"/>
<path d="M104.225 162.635H84.1221V164.632H104.225V162.635Z" fill="#E6E6E6"/>
<path d="M119.159 169.543H84.1221V171.54H119.159V169.543Z" fill="#E6E6E6"/>
<path d="M119.125 176.451H84.1221V178.447H119.125V176.451Z" fill="#E6E6E6"/>
<path d="M79.956 162.665H65.0215V178.639H79.956V162.665Z" fill="#E6E6E6"/>
<path d="M206.5 232.325C320.547 232.325 413 228.316 413 223.371C413 218.425 320.547 214.416 206.5 214.416C92.4532 214.416 0 218.425 0 223.371C0 228.316 92.4532 232.325 206.5 232.325Z" fill="#E6E6E6"/>
<path d="M267.843 0H152.602V224.863H267.843V0Z" fill="#3F3D56"/>
<path d="M157.582 219.142H262.863V5.72107H157.582V219.142Z" fill="white"/>
<path d="M226.743 54.8033H199.374V57.5219H226.743V54.8033Z" fill="#6C63FF"/>
<path d="M247.075 64.2079H199.374V66.9265H247.075V64.2079Z" fill="#E6E6E6"/>
<path d="M247.028 73.6124H199.374V76.331H247.028V73.6124Z" fill="#E6E6E6"/>
<path d="M193.702 54.8437H173.37V76.5926H193.702V54.8437Z" fill="#6C63FF"/>
<path d="M226.743 101.537H199.374V104.256H226.743V101.537Z" fill="#6C63FF"/>
<path d="M247.075 110.941H199.374V113.66H247.075V110.941Z" fill="#E6E6E6"/>
<path d="M247.028 120.346H199.374V123.065H247.028V120.346Z" fill="#E6E6E6"/>
<path d="M193.702 101.577H173.37V123.326H193.702V101.577Z" fill="#6C63FF"/>
<path d="M226.743 148.271H199.374V150.989H226.743V148.271Z" fill="#6C63FF"/>
<path d="M247.075 157.675H199.374V160.394H247.075V157.675Z" fill="#E6E6E6"/>
<path d="M247.028 167.08H199.374V169.798H247.028V167.08Z" fill="#E6E6E6"/>
<path d="M193.702 148.311H173.37V170.06H193.702V148.311Z" fill="#6C63FF"/>
<path d="M168.132 159.444L166.737 165.911C166.737 165.911 167.202 180.836 163.481 179.343C159.761 177.851 160.691 164.916 160.691 164.916L163.946 158.449L168.132 159.444Z" fill="#FFB8B8"/>
<path d="M147.436 88.5523C152.573 88.5523 156.738 84.0976 156.738 78.6026C156.738 73.1075 152.573 68.6529 147.436 68.6529C142.299 68.6529 138.134 73.1075 138.134 78.6026C138.134 84.0976 142.299 88.5523 147.436 88.5523Z" fill="#FFB8B8"/>
<path d="M140.227 81.3387L139.297 95.7658L150.924 97.2582C150.924 97.2582 150.924 85.3186 151.854 83.8262C152.784 82.3337 140.227 81.3387 140.227 81.3387Z" fill="#FFB8B8"/>
<path d="M166.039 99.9944L150.978 93.1722C150.978 93.1722 143.784 87.2341 139.564 91.6243L137.669 94.5221C137.669 94.5221 120.926 101.487 120.926 106.959L127.437 134.321C127.437 134.321 123.716 149.743 129.297 150.738L159.528 153.723C159.528 153.723 163.714 148.25 159.993 141.286L161.388 124.869L166.039 99.9944Z" fill="#575A89"/>
<path d="M155.807 100.492L166.039 99.9944C166.039 99.9944 169.295 100.989 171.62 110.442C173.946 119.894 174.411 135.316 174.411 135.316L168.83 163.175L161.854 162.18L164.644 135.316L159.993 117.406L155.807 100.492Z" fill="#575A89"/>
<path d="M126.507 103.477L121.462 105.157C121.462 105.157 117.205 111.934 117.205 115.416C117.205 118.899 115.345 145.266 115.345 145.266L127.437 166.657L131.158 156.21L123.716 142.778L129.762 126.361L126.507 103.477Z" fill="#575A89"/>
<path d="M160.923 152.728L127.485 149.581C127.485 149.581 124.181 172.13 124.646 181.084C125.112 190.039 125.577 203.969 125.577 203.969L121.856 264.662L136.274 262.672L138.134 212.426L144.18 185.064L151.156 219.888L155.807 264.662L168.365 263.169L164.179 208.944C164.179 208.944 167.9 160.19 160.923 152.728Z" fill="#2F2E41"/>
<path d="M165.574 260.682L169.76 262.174C169.76 262.174 178.597 259.687 176.271 266.154C173.946 272.622 167.435 271.627 167.435 271.627C167.435 271.627 159.528 278.094 156.272 273.119L158.133 262.672L165.574 260.682Z" fill="#2F2E41"/>
<path d="M131.623 260.682L135.809 262.174C135.809 262.174 144.645 259.687 142.32 266.154C139.994 272.622 133.483 271.627 133.483 271.627C133.483 271.627 125.577 278.094 122.321 273.119L124.181 262.672L131.623 260.682Z" fill="#2F2E41"/>
<path d="M140.227 87.3085C140.227 87.3085 130.46 79.8463 135.576 70.8916C139.125 64.6793 146.48 65.171 150.651 66.0549C151.775 66.2768 152.832 66.7877 153.73 67.5437C154.628 68.2996 155.341 69.2778 155.807 70.3941C156.505 72.1353 156.505 73.8765 153.714 73.8765C148.133 73.8765 150.924 78.3538 150.924 78.3538C150.924 78.3538 147.203 79.3488 148.133 82.8312C149.064 86.3136 140.227 87.3085 140.227 87.3085Z" fill="#2F2E41"/>
</svg>
