<svg width="413" height="328" viewBox="0 0 413 328" fill="none" xmlns="http://www.w3.org/2000/svg">
<g clip-path="url(#clip0)">
<path d="M44.9647 327.934C69.713 327.934 89.7754 323.427 89.7754 317.868C89.7754 312.309 69.713 307.802 44.9647 307.802C20.2165 307.802 0.154053 312.309 0.154053 317.868C0.154053 323.427 20.2165 327.934 44.9647 327.934Z" fill="#E6E6E6"/>
<path d="M25.6168 87.9273C34.1487 87.9273 41.0651 80.9189 41.0651 72.2735C41.0651 63.6281 34.1487 56.6197 25.6168 56.6197C17.0849 56.6197 10.1685 63.6281 10.1685 72.2735C10.1685 80.9189 17.0849 87.9273 25.6168 87.9273Z" fill="#2F2E41"/>
<path d="M70.593 169.793L74.5039 175.716C74.5039 175.716 93.2766 179.947 86.2368 186.293C79.1971 192.639 69.0286 180.37 69.0286 180.37L63.5532 172.754L70.593 169.793Z" fill="#FFB8B8"/>
<path d="M50.2559 102.524C50.2559 102.524 55.3402 102.524 56.5135 110.139C57.6868 117.754 58.86 143.139 58.86 143.139C58.86 143.139 75.2861 166.408 72.5485 169.37C69.8108 172.331 66.682 177.831 64.7265 176.985C62.7711 176.139 45.9539 151.177 45.9539 151.177L50.2559 102.524Z" fill="#E6E6E6"/>
<path d="M34.612 80.9467C34.612 80.9467 35.0031 97.4466 39.6963 98.2928C44.3894 99.1389 42.825 104.639 42.825 104.639C42.825 104.639 27.5723 114.37 17.4037 104.639L15.4482 99.562C15.4482 99.562 22.488 94.062 19.3592 86.4466L34.612 80.9467Z" fill="#FFB8B8"/>
<path d="M60.8156 182.485C60.8156 182.485 83.8904 229.024 75.2862 243.408C66.6821 257.793 53.7759 287.408 51.8204 287.408C49.8649 287.408 38.9142 281.485 39.6964 277.677C40.4786 273.87 52.2115 245.524 55.3403 242.985C58.469 240.447 56.9047 233.677 56.5136 233.254C56.1225 232.831 43.2163 210.408 43.2163 210.408C43.2163 210.408 43.6074 245.947 42.043 251.447C40.4786 256.947 42.4341 296.293 40.4786 297.985C38.5231 299.677 29.5279 302.639 27.9635 300.1C26.3991 297.562 21.7059 259.062 24.8347 250.177L18.9683 189.254L60.8156 182.485Z" fill="#2F2E41"/>
<path d="M39.6964 295.447L49.4738 314.908C49.4738 314.908 63.5533 325.908 53.7759 327.6C43.9985 329.293 38.132 325.062 38.132 325.062L29.5278 318.293V298.831L39.6964 295.447Z" fill="#2F2E41"/>
<path d="M52.9937 284.447L47.9094 297.562C47.9094 297.562 45.954 303.062 47.9094 304.331C49.8649 305.6 55.3403 313.216 51.8204 314.062C51.1123 314.212 50.3927 314.289 49.6712 314.293C46.7402 314.346 43.8295 313.758 41.1143 312.562C38.3991 311.367 35.9355 309.59 33.8718 307.338L30.7012 303.908C30.7012 303.908 41.562 276.853 41.4114 277.054C41.2608 277.254 52.9937 284.447 52.9937 284.447Z" fill="#2F2E41"/>
<path d="M24.8347 91.1005C32.1786 91.1005 38.132 84.6603 38.132 76.7159C38.132 68.7715 32.1786 62.3312 24.8347 62.3312C17.4908 62.3312 11.5374 68.7715 11.5374 76.7159C11.5374 84.6603 17.4908 91.1005 24.8347 91.1005Z" fill="#FFB8B8"/>
<path d="M17.2083 96.812L21.3148 101.254C21.3148 101.254 33.8299 106.331 39.6964 101.254C39.6964 101.254 37.5454 96.3889 37.5454 96.812C37.5454 97.235 54.5581 99.985 56.1225 107.6C57.6868 115.216 54.9492 128.331 54.9492 128.331C54.9492 128.331 65.8999 184.177 61.5978 185.447C57.2957 186.716 17.0127 197.293 17.4038 189.254C17.7949 181.216 14.2751 148.216 14.2751 148.216L0.58667 119.87C0.58667 119.87 2.54215 110.562 7.23532 107.6C11.9285 104.639 17.2083 96.812 17.2083 96.812Z" fill="#E6E6E6"/>
<path d="M34.6121 179.524L39.6963 182.908C39.6963 182.908 59.2512 197.293 49.0827 199.831C38.9141 202.37 33.0477 189.677 33.0477 189.677L29.1367 184.6L34.6121 179.524Z" fill="#FFB8B8"/>
<path opacity="0.1" d="M5.67097 117.331L2.1511 121.139C2.1511 121.139 -0.195482 156.677 4.49768 163.87C9.19085 171.062 30.7012 190.524 31.8745 189.254C33.0478 187.985 40.4786 181.639 38.9142 180.793C37.3498 179.947 16.5502 156.436 16.5502 156.436L18.1861 123.677L5.67097 117.331Z" fill="black"/>
<path d="M4.10652 116.062L0.586646 119.87C0.586646 119.87 -1.75994 155.408 2.93323 162.6C7.6264 169.793 29.1367 189.254 30.31 187.985C31.4833 186.716 38.9142 180.37 37.3498 179.523C35.7854 178.677 14.9857 155.167 14.9857 155.167L16.6216 122.408L4.10652 116.062Z" fill="#E6E6E6"/>
<path d="M30.3341 56.2834C30.3341 56.2834 34.8542 54.5053 41.018 58.2837L37.7307 59.1728C37.7307 59.1728 42.6617 59.6173 43.2781 66.7296H41.018C41.018 66.7296 42.4562 72.9529 41.018 74.731L40.0934 72.8417L37.4225 78.6205L36.8061 75.7311L35.5733 76.1757L34.7515 71.5082C34.7515 71.5082 32.6969 74.8421 31.0532 75.0644V72.175C31.0532 72.175 26.5331 77.7315 25.0949 77.5092L27.1495 74.3976L24.2731 75.0644L25.5058 72.8418L18.1093 75.0644L19.753 72.8418L14.6165 74.6198L12.151 75.7311C12.151 75.7311 8.65813 67.063 13.5892 61.062C18.5202 55.061 25.7113 53.7274 30.3341 56.2834Z" fill="#2F2E41"/>
<path d="M402.65 34.7108H103.197V242.176H402.65V34.7108Z" fill="#E6E6E6"/>
<path d="M394.087 60.7321H111.76V229.903H394.087V60.7321Z" fill="white"/>
<path d="M402.523 34.5271H103.069V48.2893H402.523V34.5271Z" fill="#6C63FF"/>
<path d="M112.523 44.1138C113.825 44.1138 114.881 42.9718 114.881 41.5631C114.881 40.1544 113.825 39.0124 112.523 39.0124C111.22 39.0124 110.165 40.1544 110.165 41.5631C110.165 42.9718 111.22 44.1138 112.523 44.1138Z" fill="white"/>
<path d="M121.473 44.1138C122.775 44.1138 123.831 42.9718 123.831 41.5631C123.831 40.1544 122.775 39.0124 121.473 39.0124C120.17 39.0124 119.115 40.1544 119.115 41.5631C119.115 42.9718 120.17 44.1138 121.473 44.1138Z" fill="white"/>
<path d="M130.423 44.1138C131.725 44.1138 132.781 42.9718 132.781 41.5631C132.781 40.1544 131.725 39.0124 130.423 39.0124C129.121 39.0124 128.065 40.1544 128.065 41.5631C128.065 42.9718 129.121 44.1138 130.423 44.1138Z" fill="white"/>
<path d="M209.958 78.2849H137.413V212.35H209.958V78.2849Z" fill="#E6E6E6"/>
<path d="M282.935 78.2849H222.48V115.188H282.935V78.2849Z" fill="#6C63FF"/>
<path d="M282.935 125.465H222.48V165.17H282.935V125.465Z" fill="#E6E6E6"/>
<path d="M282.935 175.447H222.48V212.35H282.935V175.447Z" fill="#E6E6E6"/>
<path d="M368.434 78.2849H295.889V136.71H368.434V78.2849Z" fill="#E6E6E6"/>
<path d="M368.434 153.925H295.889V212.35H368.434V153.925Z" fill="#6C63FF"/>
<path d="M253.33 94.9664L252.384 94.6942L273.049 10.5957H392.921V11.6553H273.802L253.33 94.9664Z" fill="#3F3D56"/>
<path d="M402.716 22.2507C400.682 22.2507 398.693 21.5983 397.002 20.3758C395.311 19.1533 393.992 17.4158 393.214 15.3829C392.436 13.35 392.232 11.113 392.629 8.95492C393.026 6.79681 394.005 4.81446 395.443 3.25855C396.882 1.70264 398.714 0.64305 400.709 0.213775C402.704 -0.2155 404.772 0.00482194 406.651 0.846875C408.531 1.68893 410.137 3.11489 411.267 4.94445C412.397 6.77401 413 8.92498 413 11.1254C412.997 14.075 411.912 16.9028 409.984 18.9885C408.056 21.0742 405.442 22.2474 402.716 22.2507ZM402.716 1.05957C400.875 1.05957 399.076 1.64991 397.546 2.75596C396.016 3.862 394.823 5.43407 394.119 7.27336C393.415 9.11265 393.23 11.1365 393.589 13.0891C393.948 15.0417 394.835 16.8353 396.136 18.243C397.437 19.6507 399.095 20.6094 400.9 20.9978C402.705 21.3862 404.576 21.1868 406.276 20.425C407.977 19.6631 409.43 18.373 410.452 16.7176C411.475 15.0623 412.021 13.1162 412.021 11.1254C412.018 8.45669 411.036 5.89817 409.292 4.01113C407.548 2.12408 405.183 1.0626 402.716 1.05957Z" fill="#3F3D56"/>
<path d="M402.716 15.3636C404.879 15.3636 406.634 13.4661 406.634 11.1254C406.634 8.78467 404.879 6.88715 402.716 6.88715C400.552 6.88715 398.798 8.78467 398.798 11.1254C398.798 13.4661 400.552 15.3636 402.716 15.3636Z" fill="#6C63FF"/>
<path d="M312.981 267.009H193.109V265.949H312.228L332.7 182.638L333.647 182.91L312.981 267.009Z" fill="#3F3D56"/>
<path d="M183.315 277.605C181.281 277.605 179.292 276.952 177.601 275.73C175.91 274.507 174.592 272.77 173.813 270.737C173.035 268.704 172.831 266.467 173.228 264.309C173.625 262.151 174.604 260.168 176.043 258.612C177.481 257.056 179.313 255.997 181.308 255.567C183.303 255.138 185.371 255.359 187.25 256.201C189.13 257.043 190.736 258.469 191.866 260.298C192.996 262.128 193.599 264.279 193.599 266.479C193.596 269.429 192.512 272.257 190.583 274.342C188.655 276.428 186.041 277.601 183.315 277.605ZM183.315 256.413C181.474 256.413 179.675 257.004 178.145 258.11C176.615 259.216 175.422 260.788 174.718 262.627C174.014 264.466 173.83 266.49 174.189 268.443C174.548 270.395 175.434 272.189 176.735 273.597C178.036 275.004 179.694 275.963 181.499 276.352C183.304 276.74 185.175 276.541 186.876 275.779C188.576 275.017 190.029 273.727 191.051 272.071C192.074 270.416 192.62 268.47 192.62 266.479C192.617 263.81 191.636 261.252 189.891 259.365C188.147 257.478 185.782 256.416 183.315 256.413Z" fill="#3F3D56"/>
<path d="M183.315 270.717C185.478 270.717 187.232 268.82 187.232 266.479C187.232 264.138 185.478 262.241 183.315 262.241C181.151 262.241 179.397 264.138 179.397 266.479C179.397 268.82 181.151 270.717 183.315 270.717Z" fill="#6C63FF"/>
</g>
<defs>
<clipPath id="clip0">
<rect width="413" height="328" fill="white"/>
</clipPath>
</defs>
</svg>
